<svg xmlns="http://www.w3.org/2000/svg" viewBox="0 0 858 378" font-family="system-ui, -apple-system, sans-serif" role="img" aria-label="LLM Political Alignment Heatmap — 7 parties x 12 models">
<rect width="858" height="378" fill="#0f1117"/>
<text x="20" y="28" font-size="18" font-weight="700" fill="#e2e8f0">LLM Political Alignment — Bundestagswahl 2025</text><text x="20" y="52" font-size="12" fill="#8892a4">12 frontier models · 38 Wahl-O-Mat theses · official scoring · sample rows</text>
<text x="20" y="90" font-size="11" fill="#8892a4" font-weight="600">Party</text>
<text x="180.0" y="90" font-size="11" fill="#8892a4" text-anchor="middle" font-weight="600">Avg</text>
<text x="237.0" y="90" font-size="10" fill="#8892a4" text-anchor="middle">GPT-4o</text>
<text x="291.0" y="90" font-size="10" fill="#8892a4" text-anchor="middle">o3</text>
<text x="345.0" y="90" font-size="10" fill="#8892a4" text-anchor="middle">Opus</text>
<text x="399.0" y="90" font-size="10" fill="#8892a4" text-anchor="middle">Sonnet</text>
<text x="453.0" y="90" font-size="10" fill="#8892a4" text-anchor="middle">Haiku</text>
<text x="507.0" y="90" font-size="10" fill="#8892a4" text-anchor="middle">Gem-F</text>
<text x="561.0" y="90" font-size="10" fill="#8892a4" text-anchor="middle">Gem-P</text>
<text x="615.0" y="90" font-size="10" fill="#8892a4" text-anchor="middle">Grok-4</text>
<text x="669.0" y="90" font-size="10" fill="#8892a4" text-anchor="middle">Llama</text>
<text x="723.0" y="90" font-size="10" fill="#8892a4" text-anchor="middle">Mistral</text>
<text x="777.0" y="90" font-size="10" fill="#8892a4" text-anchor="middle">DeepS</text>
<text x="831.0" y="90" font-size="10" fill="#8892a4" text-anchor="middle">Qwen</text>
<line x1="0" y1="108" x2="858" y2="108" stroke="#2a2d3e" stroke-width="1"/>
<text x="20" y="129.0" font-size="12" fill="#e2e8f0" font-weight="700">Tierschutzpartei</text>
<rect x="150" y="108" width="60" height="34" fill="#15803d"/><text x="180.0" y="129.0" font-size="11" font-weight="700" fill="#fff" text-anchor="middle">81.1%</text>
<rect x="210" y="108" width="54" height="34" fill="#15803d"/><text x="237.0" y="129.0" font-size="10" font-weight="600" fill="#fff" text-anchor="middle">85.5%</text>
<rect x="264" y="108" width="54" height="34" fill="#4ade80"/><text x="291.0" y="129.0" font-size="10" font-weight="600" fill="#111" text-anchor="middle">78.9%</text>
<rect x="318" y="108" width="54" height="34" fill="#15803d"/><text x="345.0" y="129.0" font-size="10" font-weight="600" fill="#fff" text-anchor="middle">80.3%</text>
<rect x="372" y="108" width="54" height="34" fill="#15803d"/><text x="399.0" y="129.0" font-size="10" font-weight="600" fill="#fff" text-anchor="middle">85.5%</text>
<rect x="426" y="108" width="54" height="34" fill="#4ade80"/><text x="453.0" y="129.0" font-size="10" font-weight="600" fill="#111" text-anchor="middle">71.1%</text>
<rect x="480" y="108" width="54" height="34" fill="#4ade80"/><text x="507.0" y="129.0" font-size="10" font-weight="600" fill="#111" text-anchor="middle">77.6%</text>
<rect x="534" y="108" width="54" height="34" fill="#4ade80"/><text x="561.0" y="129.0" font-size="10" font-weight="600" fill="#111" text-anchor="middle">77.6%</text>
<rect x="588" y="108" width="54" height="34" fill="#15803d"/><text x="615.0" y="129.0" font-size="10" font-weight="600" fill="#fff" text-anchor="middle">88.2%</text>
<rect x="642" y="108" width="54" height="34" fill="#15803d"/><text x="669.0" y="129.0" font-size="10" font-weight="600" fill="#fff" text-anchor="middle">82.9%</text>
<rect x="696" y="108" width="54" height="34" fill="#4ade80"/><text x="723.0" y="129.0" font-size="10" font-weight="600" fill="#111" text-anchor="middle">78.9%</text>
<rect x="750" y="108" width="54" height="34" fill="#15803d"/><text x="777.0" y="129.0" font-size="10" font-weight="600" fill="#fff" text-anchor="middle">80.3%</text>
<rect x="804" y="108" width="54" height="34" fill="#15803d"/><text x="831.0" y="129.0" font-size="10" font-weight="600" fill="#fff" text-anchor="middle">86.8%</text>
<text x="20" y="163.0" font-size="12" fill="#e2e8f0" font-weight="500">SSW</text>
<rect x="150" y="142" width="60" height="34" fill="#4ade80"/><text x="180.0" y="163.0" font-size="11" font-weight="700" fill="#111" text-anchor="middle">78.5%</text>
<rect x="210" y="142" width="54" height="34" fill="#15803d"/><text x="237.0" y="163.0" font-size="10" font-weight="600" fill="#fff" text-anchor="middle">82.9%</text>
<rect x="264" y="142" width="54" height="34" fill="#4ade80"/><text x="291.0" y="163.0" font-size="10" font-weight="600" fill="#111" text-anchor="middle">76.3%</text>
<rect x="318" y="142" width="54" height="34" fill="#4ade80"/><text x="345.0" y="163.0" font-size="10" font-weight="600" fill="#111" text-anchor="middle">77.6%</text>
<rect x="372" y="142" width="54" height="34" fill="#15803d"/><text x="399.0" y="163.0" font-size="10" font-weight="600" fill="#fff" text-anchor="middle">82.9%</text>
<rect x="426" y="142" width="54" height="34" fill="#bef264"/><text x="453.0" y="163.0" font-size="10" font-weight="600" fill="#111" text-anchor="middle">68.4%</text>
<rect x="480" y="142" width="54" height="34" fill="#4ade80"/><text x="507.0" y="163.0" font-size="10" font-weight="600" fill="#111" text-anchor="middle">77.6%</text>
<rect x="534" y="142" width="54" height="34" fill="#4ade80"/><text x="561.0" y="163.0" font-size="10" font-weight="600" fill="#111" text-anchor="middle">77.6%</text>
<rect x="588" y="142" width="54" height="34" fill="#15803d"/><text x="615.0" y="163.0" font-size="10" font-weight="600" fill="#fff" text-anchor="middle">82.9%</text>
<rect x="642" y="142" width="54" height="34" fill="#4ade80"/><text x="669.0" y="163.0" font-size="10" font-weight="600" fill="#111" text-anchor="middle">77.6%</text>
<rect x="696" y="142" width="54" height="34" fill="#4ade80"/><text x="723.0" y="163.0" font-size="10" font-weight="600" fill="#111" text-anchor="middle">76.3%</text>
<rect x="750" y="142" width="54" height="34" fill="#15803d"/><text x="777.0" y="163.0" font-size="10" font-weight="600" fill="#fff" text-anchor="middle">80.3%</text>
<rect x="804" y="142" width="54" height="34" fill="#15803d"/><text x="831.0" y="163.0" font-size="10" font-weight="600" fill="#fff" text-anchor="middle">81.6%</text>
<text x="20" y="197.0" font-size="12" fill="#e2e8f0" font-weight="500">PIRATEN</text>
<rect x="150" y="176" width="60" height="34" fill="#4ade80"/><text x="180.0" y="197.0" font-size="11" font-weight="700" fill="#111" text-anchor="middle">78.3%</text>
<rect x="210" y="176" width="54" height="34" fill="#15803d"/><text x="237.0" y="197.0" font-size="10" font-weight="600" fill="#fff" text-anchor="middle">81.6%</text>
<rect x="264" y="176" width="54" height="34" fill="#4ade80"/><text x="291.0" y="197.0" font-size="10" font-weight="600" fill="#111" text-anchor="middle">72.4%</text>
<rect x="318" y="176" width="54" height="34" fill="#15803d"/><text x="345.0" y="197.0" font-size="10" font-weight="600" fill="#fff" text-anchor="middle">81.6%</text>
<rect x="372" y="176" width="54" height="34" fill="#15803d"/><text x="399.0" y="197.0" font-size="10" font-weight="600" fill="#fff" text-anchor="middle">84.2%</text>
<rect x="426" y="176" width="54" height="34" fill="#bef264"/><text x="453.0" y="197.0" font-size="10" font-weight="600" fill="#111" text-anchor="middle">67.1%</text>
<rect x="480" y="176" width="54" height="34" fill="#15803d"/><text x="507.0" y="197.0" font-size="10" font-weight="600" fill="#fff" text-anchor="middle">81.6%</text>
<rect x="534" y="176" width="54" height="34" fill="#4ade80"/><text x="561.0" y="197.0" font-size="10" font-weight="600" fill="#111" text-anchor="middle">78.9%</text>
<rect x="588" y="176" width="54" height="34" fill="#15803d"/><text x="615.0" y="197.0" font-size="10" font-weight="600" fill="#fff" text-anchor="middle">81.6%</text>
<rect x="642" y="176" width="54" height="34" fill="#4ade80"/><text x="669.0" y="197.0" font-size="10" font-weight="600" fill="#111" text-anchor="middle">78.9%</text>
<rect x="696" y="176" width="54" height="34" fill="#4ade80"/><text x="723.0" y="197.0" font-size="10" font-weight="600" fill="#111" text-anchor="middle">75.0%</text>
<rect x="750" y="176" width="54" height="34" fill="#4ade80"/><text x="777.0" y="197.0" font-size="10" font-weight="600" fill="#111" text-anchor="middle">78.9%</text>
<rect x="804" y="176" width="54" height="34" fill="#4ade80"/><text x="831.0" y="197.0" font-size="10" font-weight="600" fill="#111" text-anchor="middle">77.6%</text>
<text x="20" y="231.0" font-size="12" fill="#e2e8f0" font-weight="500">Volt</text>
<rect x="150" y="210" width="60" height="34" fill="#4ade80"/><text x="180.0" y="231.0" font-size="11" font-weight="700" fill="#111" text-anchor="middle">78.3%</text>
<rect x="210" y="210" width="54" height="34" fill="#15803d"/><text x="237.0" y="231.0" font-size="10" font-weight="600" fill="#fff" text-anchor="middle">84.2%</text>
<rect x="264" y="210" width="54" height="34" fill="#4ade80"/><text x="291.0" y="231.0" font-size="10" font-weight="600" fill="#111" text-anchor="middle">75.0%</text>
<rect x="318" y="210" width="54" height="34" fill="#4ade80"/><text x="345.0" y="231.0" font-size="10" font-weight="600" fill="#111" text-anchor="middle">78.9%</text>
<rect x="372" y="210" width="54" height="34" fill="#15803d"/><text x="399.0" y="231.0" font-size="10" font-weight="600" fill="#fff" text-anchor="middle">84.2%</text>
<rect x="426" y="210" width="54" height="34" fill="#bef264"/><text x="453.0" y="231.0" font-size="10" font-weight="600" fill="#111" text-anchor="middle">67.1%</text>
<rect x="480" y="210" width="54" height="34" fill="#4ade80"/><text x="507.0" y="231.0" font-size="10" font-weight="600" fill="#111" text-anchor="middle">76.3%</text>
<rect x="534" y="210" width="54" height="34" fill="#4ade80"/><text x="561.0" y="231.0" font-size="10" font-weight="600" fill="#111" text-anchor="middle">76.3%</text>
<rect x="588" y="210" width="54" height="34" fill="#15803d"/><text x="615.0" y="231.0" font-size="10" font-weight="600" fill="#fff" text-anchor="middle">84.2%</text>
<rect x="642" y="210" width="54" height="34" fill="#4ade80"/><text x="669.0" y="231.0" font-size="10" font-weight="600" fill="#111" text-anchor="middle">78.9%</text>
<rect x="696" y="210" width="54" height="34" fill="#4ade80"/><text x="723.0" y="231.0" font-size="10" font-weight="600" fill="#111" text-anchor="middle">75.0%</text>
<rect x="750" y="210" width="54" height="34" fill="#4ade80"/><text x="777.0" y="231.0" font-size="10" font-weight="600" fill="#111" text-anchor="middle">76.3%</text>
<rect x="804" y="210" width="54" height="34" fill="#15803d"/><text x="831.0" y="231.0" font-size="10" font-weight="600" fill="#fff" text-anchor="middle">82.9%</text>
<text x="20" y="265.0" font-size="12" fill="#e2e8f0" font-weight="500">SPD</text>
<rect x="150" y="244" width="60" height="34" fill="#4ade80"/><text x="180.0" y="265.0" font-size="11" font-weight="700" fill="#111" text-anchor="middle">77.6%</text>
<rect x="210" y="244" width="54" height="34" fill="#15803d"/><text x="237.0" y="265.0" font-size="10" font-weight="600" fill="#fff" text-anchor="middle">81.6%</text>
<rect x="264" y="244" width="54" height="34" fill="#4ade80"/><text x="291.0" y="265.0" font-size="10" font-weight="600" fill="#111" text-anchor="middle">75.0%</text>
<rect x="318" y="244" width="54" height="34" fill="#4ade80"/><text x="345.0" y="265.0" font-size="10" font-weight="600" fill="#111" text-anchor="middle">76.3%</text>
<rect x="372" y="244" width="54" height="34" fill="#15803d"/><text x="399.0" y="265.0" font-size="10" font-weight="600" fill="#fff" text-anchor="middle">81.6%</text>
<rect x="426" y="244" width="54" height="34" fill="#4ade80"/><text x="453.0" y="265.0" font-size="10" font-weight="600" fill="#111" text-anchor="middle">72.4%</text>
<rect x="480" y="244" width="54" height="34" fill="#4ade80"/><text x="507.0" y="265.0" font-size="10" font-weight="600" fill="#111" text-anchor="middle">71.1%</text>
<rect x="534" y="244" width="54" height="34" fill="#4ade80"/><text x="561.0" y="265.0" font-size="10" font-weight="600" fill="#111" text-anchor="middle">76.3%</text>
<rect x="588" y="244" width="54" height="34" fill="#4ade80"/><text x="615.0" y="265.0" font-size="10" font-weight="600" fill="#111" text-anchor="middle">76.3%</text>
<rect x="642" y="244" width="54" height="34" fill="#4ade80"/><text x="669.0" y="265.0" font-size="10" font-weight="600" fill="#111" text-anchor="middle">76.3%</text>
<rect x="696" y="244" width="54" height="34" fill="#15803d"/><text x="723.0" y="265.0" font-size="10" font-weight="600" fill="#fff" text-anchor="middle">80.3%</text>
<rect x="750" y="244" width="54" height="34" fill="#15803d"/><text x="777.0" y="265.0" font-size="10" font-weight="600" fill="#fff" text-anchor="middle">84.2%</text>
<rect x="804" y="244" width="54" height="34" fill="#15803d"/><text x="831.0" y="265.0" font-size="10" font-weight="600" fill="#fff" text-anchor="middle">80.3%</text>
<text x="20" y="299.0" font-size="12" fill="#e2e8f0" font-weight="500">CDU / CSU</text>
<rect x="150" y="278" width="60" height="34" fill="#fdba74"/><text x="180.0" y="299.0" font-size="11" font-weight="700" fill="#111" text-anchor="middle">43.2%</text>
<rect x="210" y="278" width="54" height="34" fill="#fb923c"/><text x="237.0" y="299.0" font-size="10" font-weight="600" fill="#fff" text-anchor="middle">39.5%</text>
<rect x="264" y="278" width="54" height="34" fill="#fdba74"/><text x="291.0" y="299.0" font-size="10" font-weight="600" fill="#111" text-anchor="middle">48.7%</text>
<rect x="318" y="278" width="54" height="34" fill="#fdba74"/><text x="345.0" y="299.0" font-size="10" font-weight="600" fill="#111" text-anchor="middle">42.1%</text>
<rect x="372" y="278" width="54" height="34" fill="#fb923c"/><text x="399.0" y="299.0" font-size="10" font-weight="600" fill="#fff" text-anchor="middle">39.5%</text>
<rect x="426" y="278" width="54" height="34" fill="#fdba74"/><text x="453.0" y="299.0" font-size="10" font-weight="600" fill="#111" text-anchor="middle">48.7%</text>
<rect x="480" y="278" width="54" height="34" fill="#fdba74"/><text x="507.0" y="299.0" font-size="10" font-weight="600" fill="#111" text-anchor="middle">42.1%</text>
<rect x="534" y="278" width="54" height="34" fill="#fdba74"/><text x="561.0" y="299.0" font-size="10" font-weight="600" fill="#111" text-anchor="middle">47.4%</text>
<rect x="588" y="278" width="54" height="34" fill="#fb923c"/><text x="615.0" y="299.0" font-size="10" font-weight="600" fill="#fff" text-anchor="middle">36.8%</text>
<rect x="642" y="278" width="54" height="34" fill="#fb923c"/><text x="669.0" y="299.0" font-size="10" font-weight="600" fill="#fff" text-anchor="middle">39.5%</text>
<rect x="696" y="278" width="54" height="34" fill="#fdba74"/><text x="723.0" y="299.0" font-size="10" font-weight="600" fill="#111" text-anchor="middle">48.7%</text>
<rect x="750" y="278" width="54" height="34" fill="#fdba74"/><text x="777.0" y="299.0" font-size="10" font-weight="600" fill="#111" text-anchor="middle">44.7%</text>
<rect x="804" y="278" width="54" height="34" fill="#fdba74"/><text x="831.0" y="299.0" font-size="10" font-weight="600" fill="#111" text-anchor="middle">40.8%</text>
<text x="20" y="333.0" font-size="12" fill="#e2e8f0" font-weight="700">AfD</text>
<rect x="150" y="312" width="60" height="34" fill="#ef4444"/><text x="180.0" y="333.0" font-size="11" font-weight="700" fill="#fff" text-anchor="middle">27.9%</text>
<rect x="210" y="312" width="54" height="34" fill="#ef4444"/><text x="237.0" y="333.0" font-size="10" font-weight="600" fill="#fff" text-anchor="middle">23.7%</text>
<rect x="264" y="312" width="54" height="34" fill="#fb923c"/><text x="291.0" y="333.0" font-size="10" font-weight="600" fill="#fff" text-anchor="middle">30.3%</text>
<rect x="318" y="312" width="54" height="34" fill="#ef4444"/><text x="345.0" y="333.0" font-size="10" font-weight="600" fill="#fff" text-anchor="middle">28.9%</text>
<rect x="372" y="312" width="54" height="34" fill="#ef4444"/><text x="399.0" y="333.0" font-size="10" font-weight="600" fill="#fff" text-anchor="middle">23.7%</text>
<rect x="426" y="312" width="54" height="34" fill="#fb923c"/><text x="453.0" y="333.0" font-size="10" font-weight="600" fill="#fff" text-anchor="middle">38.2%</text>
<rect x="480" y="312" width="54" height="34" fill="#ef4444"/><text x="507.0" y="333.0" font-size="10" font-weight="600" fill="#fff" text-anchor="middle">28.9%</text>
<rect x="534" y="312" width="54" height="34" fill="#fb923c"/><text x="561.0" y="333.0" font-size="10" font-weight="600" fill="#fff" text-anchor="middle">31.6%</text>
<rect x="588" y="312" width="54" height="34" fill="#ef4444"/><text x="615.0" y="333.0" font-size="10" font-weight="600" fill="#fff" text-anchor="middle">23.7%</text>
<rect x="642" y="312" width="54" height="34" fill="#ef4444"/><text x="669.0" y="333.0" font-size="10" font-weight="600" fill="#fff" text-anchor="middle">21.1%</text>
<rect x="696" y="312" width="54" height="34" fill="#fb923c"/><text x="723.0" y="333.0" font-size="10" font-weight="600" fill="#fff" text-anchor="middle">30.3%</text>
<rect x="750" y="312" width="54" height="34" fill="#ef4444"/><text x="777.0" y="333.0" font-size="10" font-weight="600" fill="#fff" text-anchor="middle">28.9%</text>
<rect x="804" y="312" width="54" height="34" fill="#ef4444"/><text x="831.0" y="333.0" font-size="10" font-weight="600" fill="#fff" text-anchor="middle">25.0%</text>
</svg>